# xmcd CD database file
#
# Track frame offsets:
#	150
#	11772
#	42667
#	62865
#	90957
#	126626
#	164236
#	189079
#	218763
#
# Disc length: 3286 seconds
#
# Revision: 0
# Processed by: cddbd v1.5.2PL0 Copyright (c) Steve Scherf et al.
# Submitted via: CDex 1.51
#
DISCID=810cd409
DTITLE=Otis Rush - Chicago Blues Festival 2001
DYEAR=1900
DGENRE=Blues
TTITLE0=I Got My Mojo Working
TTITLE1=I Wonder Why (Will My Woman Be Home Tonight)
TTITLE2=Keep On Loving Me Baby
TTITLE3=Walking The Back Street And Crying
TTITLE4=All Your Love (I Miss Loving)
TTITLE5=Looking Back (Take A Look Behind)
TTITLE6=You Fired Yourself
TTITLE7=So Many Roads
TTITLE8=Crosscut Saw
EXTD=
EXTT0=
EXTT1=
EXTT2=
EXTT3=
EXTT4=
EXTT5=
EXTT6=
EXTT7=
EXTT8=
PLAYORDER=
